<svg xmlns="http://www.w3.org/2000/svg" width="95" height="19.426" viewBox="0 0 95 19.426"><g data-name="Group 2127" fill="#353535"><path data-name="Path 57948" d="M30.275 13.632v1.506c0 2.102 1.114 3.557 3.888 3.557a11.553 11.553 0 002.597-.332v-2.096a12.032 12.032 0 01-2.363.28c-1.157 0-1.501-.254-1.501-1.236v-1.856c0-.98.343-1.235 1.501-1.235a12.083 12.083 0 012.363.28v-2.097a11.551 11.551 0 00-2.597-.332c-2.774 0-3.888 1.46-3.888 3.561z"/><path data-name="Path 57949" d="M75.486 10.166l-2.37 3.769V6.319l-2.554.43v11.8h2.554v-3.914l2.37 3.914h2.8l-2.585-4.301 2.585-4.083z"/><path data-name="Path 57950" d="M22.56 10.166h-1.956l.004-1.057c0-.56.053-.842.86-.842h1.08V6.105h-1.721c-2.071 0-2.798 1.043-2.798 2.797v1.264h-1.313v2.16h1.31v6.222h2.554v-6.222h1.75z"/><path data-name="Path 57951" d="M44.817 15.144v-1.728c0-1.856-.793-3.346-3.635-3.346-2.843 0-3.636 1.507-3.636 3.346v1.721c0 2.102 1.088 3.557 3.862 3.557a13.573 13.573 0 003.212-.331v-2.096a14.918 14.918 0 01-3.013.28c-1.158 0-1.507-.255-1.507-1.236v-.167zM40.1 13.082c0-.595.203-1.075 1.08-1.075.878 0 1.08.48 1.08 1.075v.359H40.1z"/><path data-name="Path 57952" d="M25.822 10.166h-2.414l-.217 2.162h2.21c1.35 0 1.468.27 1.468 1.147v.36h-1.802c-1.754 0-2.736.618-2.736 2.332a2.29 2.29 0 002.42 2.511 4.91 4.91 0 002.44-.62l.092.556h2.14V13.49c0-2.363-.636-3.324-3.601-3.324zm1.047 6.343a2.682 2.682 0 01-1.232.347.68.68 0 01-.583-.238.788.788 0 01-.137-.491c0-.474.24-.59.786-.59h1.166z"/><path data-name="Path 57953" d="M20.58 18.548h-2.554v-6.222h-1.31v-2.161h1.31V8.9c0-1.754.727-2.798 2.797-2.798h1.726v2.162h-1.076c-.806 0-.86.282-.86.842l-.009 1.06h1.953l-.229 2.16h-1.75z"/><path data-name="Path 57954" d="M36.76 12.5a12.083 12.083 0 00-2.363-.28c-1.158 0-1.502.255-1.502 1.235v1.856c0 .98.344 1.236 1.502 1.236a12.032 12.032 0 002.363-.28v2.096a11.553 11.553 0 01-2.597.331c-2.774 0-3.889-1.455-3.889-3.557v-1.505c0-2.104 1.114-3.562 3.889-3.562a11.551 11.551 0 012.597.333z"/><path data-name="Path 57955" d="M78.284 18.55h-2.798l-2.37-3.913v3.913H70.56V6.75l2.555-.429v7.614l2.37-3.769h2.8L75.7 14.25z"/><path data-name="Path 57956" d="M50.24 10.071a6.097 6.097 0 00-1.95.312V6.319l-2.556.43V18.36a19.26 19.26 0 003.425.328c3.527 0 4.108-1.483 4.108-3.514v-2.096c0-1.853-.443-3.008-3.027-3.008zm.407 5.124c0 .806-.168 1.384-1.433 1.384a8.318 8.318 0 01-.926-.036V12.57a2.93 2.93 0 011.287-.348c.879 0 1.071.479 1.071 1.073z"/><path data-name="Path 57957" d="M66.015 10.076c-3.037 0-3.774 1.7-3.774 3.453v1.692c0 1.75.738 3.453 3.774 3.453 3.037 0 3.76-1.7 3.76-3.453V13.53c-.001-1.752-.726-3.453-3.76-3.453zm1.204 5.395c0 .597-.305 1.076-1.182 1.076-.876 0-1.176-.48-1.176-1.076v-2.175c0-.595.299-1.073 1.176-1.073.878 0 1.182.478 1.182 1.073z"/><path data-name="Path 57958" d="M57.762 10.076c-3.037 0-3.774 1.7-3.774 3.453v1.692c0 1.75.737 3.453 3.774 3.453s3.759-1.7 3.759-3.453V13.53c0-1.752-.725-3.453-3.759-3.453zm1.204 5.395c0 .597-.335 1.076-1.212 1.076-.876 0-1.212-.48-1.212-1.076v-2.175c0-.595.334-1.073 1.212-1.073.88 0 1.212.478 1.212 1.073z"/></g></svg>