<svg xmlns="http://www.w3.org/2000/svg" width="102.385" height="33.447" viewBox="0 0 102.385 33.447"><path data-name="Path 57947" d="M19.788 5.262a10.69 10.69 0 100 21.377 9.85 9.85 0 007.495-3.008 10.502 10.502 0 002.375-8.656h-9.87v2.903h7.018a6.146 6.146 0 01-1.584 3.695 7.272 7.272 0 01-5.437 2.164 7.759 7.759 0 010-15.518 7.251 7.251 0 015.278 2.112l2.058-2.059a10.132 10.132 0 00-7.333-3.01zm17.893 7.653a6.968 6.968 0 106.863 6.968 6.806 6.806 0 00-6.863-6.968m0 11.19a4.24 4.24 0 113.853-4.222 4.002 4.002 0 01-3.853 4.222m14.884-11.19a6.968 6.968 0 106.863 6.968 6.775 6.775 0 00-6.863-6.968m0 11.19a4.24 4.24 0 113.853-4.222 4.002 4.002 0 01-3.853 4.222m14.831-11.19a6.897 6.897 0 000 13.776 4.612 4.612 0 003.589-1.583h.106v1.003c0 2.64-1.373 4.064-3.639 4.064a3.766 3.766 0 01-3.43-2.428l-2.64 1.108a6.473 6.473 0 006.07 4.065c3.537 0 6.492-2.111 6.492-7.179v-12.35h-2.852v1.108h-.106a4.612 4.612 0 00-3.589-1.584m.264 11.08a3.946 3.946 0 01-3.804-4.17 3.994 3.994 0 013.804-4.221c2.058 0 3.638 1.794 3.638 4.222 0 2.428-1.583 4.17-3.638 4.17m8.498-17.893h3.008V26.48h-3.009zm11.08 6.808c-3.588 0-6.598 2.798-6.598 6.968a6.818 6.818 0 006.915 6.967 6.901 6.901 0 005.806-3.06l-2.375-1.583a3.989 3.989 0 01-3.431 1.902 3.456 3.456 0 01-3.378-2.111l9.344-3.853-.317-.792c-.579-1.53-2.375-4.434-5.964-4.434m-3.589 6.756a3.821 3.821 0 013.639-4.064 2.631 2.631 0 012.59 1.48z" fill="#353535"/></svg>