<svg xmlns="http://www.w3.org/2000/svg" width="52.205" height="31.074" viewBox="0 0 52.205 31.074"><defs><clipPath id="a"><path data-name="Rectangle 64" fill="none" d="M0 0h52.205v31.074H0z"/></clipPath></defs><g data-name="Group 2121"><g data-name="Group 362"><g data-name="Group 361" clip-path="url(#a)" transform="translate(5.212 3.09) scale(.80004)"><path data-name="Path 30951" d="M31.947.482a27.992 27.992 0 014.29 1.005 29.377 29.377 0 016.957 3.172 1.055 1.055 0 00.532.155c2.562.011 5.124.005 7.683.008.206 0 .413.023.617.033 0 .052.008.073 0 .083-.118.186-.24.367-.361.55a15.669 15.669 0 00-2.048 4.269.489.489 0 00.052.465 13.068 13.068 0 01-3.688 18.675 12.887 12.887 0 01-6.953 1.993 12.166 12.166 0 01-3.117-.4 13.1 13.1 0 01-6.4-3.779c-.233-.248-.452-.506-.7-.787-.932 1.392-1.851 2.758-2.791 4.163-.935-1.4-1.842-2.753-2.746-4.1a.626.626 0 00-.093.05.442.442 0 00-.054.057 12.936 12.936 0 01-8.089 4.581 12.6 12.6 0 01-5.39-.3 13.087 13.087 0 01-9.47-10.594 12.6 12.6 0 01.235-5.163 13.12 13.12 0 012.032-4.414.5.5 0 00.057-.38A14.567 14.567 0 00.674 5.888c-.2-.315-.436-.6-.656-.906v-.1a1.09 1.09 0 00.132.013h7.864a.669.669 0 00.339-.108 28.286 28.286 0 015.865-2.848A31.933 31.933 0 0118.771.707a36.136 36.136 0 014.527-.6 38.5 38.5 0 018.654.385zm-3.285 17.312a10.4 10.4 0 1010.18-10.362 10.421 10.421 0 00-10.18 10.362zm-15.61-10.4a10.393 10.393 0 1010.416 10.439A10.408 10.408 0 0013.052 7.394zm.516-2.714a13.275 13.275 0 0112.5 11.345 13.22 13.22 0 0112.3-11.286 29.538 29.538 0 00-11.593-2.415A32.088 32.088 0 0013.562 4.68zm0 0" fill-rule="evenodd"/></g></g><path data-name="Path 30952" d="M36.451 12.074a5.155 5.155 0 11-5.17 5.15 5.137 5.137 0 015.17-5.15zm3.36 5.15a3.371 3.371 0 10-3.372 3.37 3.365 3.365 0 003.373-3.37zm0 0" fill-rule="evenodd"/><path data-name="Path 30953" d="M15.545 12.074a5.156 5.156 0 11-5.176 5.145 5.133 5.133 0 015.176-5.145zm3.36 5.138a3.373 3.373 0 10-3.36 3.382 3.369 3.369 0 003.36-3.382zm0 0" fill-rule="evenodd"/><path data-name="Path 30954" d="M36.453 15.514a1.709 1.709 0 11-1.713 1.726 1.712 1.712 0 011.713-1.726zm0 0" fill-rule="evenodd"/><path data-name="Path 30955" d="M15.535 15.5a1.724 1.724 0 11.006 3.448 1.724 1.724 0 11-.006-3.448zm0 0" fill-rule="evenodd"/></g></svg>